<svg width="12" height="12" viewBox="0 0 12 12" fill="none" xmlns="http://www.w3.org/2000/svg">
<g clip-path="url(#clip0_160_10190)">
<path d="M6.02465 9.61151C4.03115 9.61151 3.12066 8.59601 3.12066 7.85101C3.12016 7.67351 3.19316 7.50351 3.32215 7.38101C3.45115 7.25901 3.62466 7.19501 3.80216 7.20501C4.65565 7.20501 4.43215 8.48501 6.02465 8.48501C6.83865 8.48501 7.31666 7.99501 7.31666 7.53451C7.31666 7.25801 7.15865 6.94201 6.62115 6.81551L4.84315 6.36701C3.41465 6.00351 3.16565 5.20951 3.16565 4.47251C3.16565 2.94351 4.56415 2.39001 5.89615 2.39001C7.12315 2.39001 8.58116 3.06751 8.58116 3.98451C8.58116 4.37951 8.25115 4.59101 7.86816 4.59101C7.13915 4.59101 7.26165 3.56751 5.79565 3.56751C5.06665 3.56751 4.68316 3.90951 4.68316 4.38751C4.68316 4.86551 5.25015 5.02751 5.74816 5.13651L7.06015 5.43301C8.49866 5.75701 8.88166 6.60051 8.88166 7.40851C8.88166 8.65101 7.91965 9.61151 6.02315 9.61151M11.5287 6.98201C11.5857 6.65601 11.6142 6.32551 11.6137 5.99401C11.6207 4.33051 10.8897 2.75001 9.61816 1.67801C8.34666 0.606011 6.66516 0.152511 5.02666 0.440511C4.52316 0.150511 3.95216 -0.001489 3.37116 1.09953e-05C2.17866 0.007511 1.07915 0.646511 0.483155 1.67951C-0.113345 2.71251 -0.116845 3.98401 0.473155 5.02051C0.144155 6.82951 0.720655 8.68501 2.01715 9.98851C3.31365 11.292 5.16615 11.879 6.97666 11.5595C7.47966 11.849 8.05016 12.001 8.63016 12C9.82216 11.9925 10.9207 11.3535 11.5167 10.321C12.1127 9.28851 12.1177 8.01801 11.5287 6.98201Z" fill="#5C5C5C"/>
</g>
<defs>
<clipPath id="clip0_160_10190">
<rect width="12" height="12" fill="white"/>
</clipPath>
</defs>
</svg>
